<svg width="30" height="30" viewBox="0 0 30 30" fill="none" xmlns="http://www.w3.org/2000/svg">
<path fill-rule="evenodd" clip-rule="evenodd" d="M30 15C30 23.2843 23.2843 30 15 30C6.71573 30 0 23.2843 0 15C0 9.24391 3.2422 4.24508 8 1.73009V15.5V16H8.0164C8.27369 19.909 11.5259 23 15.5 23C19.6421 23 23 19.6421 23 15.5C23 11.3579 19.6421 8 15.5 8C13.8116 8 12.2535 8.55792 11 9.49945V0.539233C12.2734 0.187765 13.6148 0 15 0C23.2843 0 30 6.71573 30 15ZM11 15.5C11 17.9853 13.0147 20 15.5 20C17.9853 20 20 17.9853 20 15.5C20 13.0147 17.9853 11 15.5 11C13.0147 11 11 13.0147 11 15.5Z" fill="white"/>
</svg>
