<svg width="324" height="13" viewBox="0 0 324 13" fill="none" xmlns="http://www.w3.org/2000/svg">
<path d="M1.54602 3.95605L1.33801 1.59009L7.474 0.498047L7.68201 2.86407L1.54602 3.95605ZM8.55402 3.95605L8.34601 1.59009L14.482 0.498047L14.69 2.86407L8.55402 3.95605ZM15.562 3.95605L15.354 1.59009L21.49 0.498047L21.698 2.86407L15.562 3.95605ZM22.569 3.95605L22.361 1.59009L28.497 0.498047L28.705 2.86407L22.569 3.95605ZM29.577 3.95605L29.369 1.59009L35.505 0.498047L35.713 2.86407L29.577 3.95605ZM36.585 3.95605L36.377 1.59009L42.513 0.498047L42.721 2.86407L36.585 3.95605ZM43.593 3.95605L43.385 1.59009L49.521 0.498047L49.729 2.86407L43.593 3.95605ZM50.601 3.95605L50.393 1.59009L56.529 0.498047L56.737 2.86407L50.601 3.95605ZM57.609 3.95605L57.401 1.59009L63.537 0.498047L63.744 2.86407L57.609 3.95605ZM64.616 3.95605L64.408 1.59009L70.544 0.498047L70.752 2.86407L64.616 3.95605ZM71.624 3.95605L71.416 1.59009L77.552 0.498047L77.76 2.86407L71.624 3.95605ZM78.632 3.95605L78.424 1.59009L84.56 0.498047L84.768 2.86407L78.632 3.95605ZM85.64 3.95605L85.432 1.59009L91.568 0.498047L91.776 2.86407L85.64 3.95605ZM92.648 3.95605L92.44 1.59009L98.576 0.498047L98.784 2.86407L92.648 3.95605ZM99.655 3.95605L99.447 1.59009L105.583 0.498047L105.791 2.86407L99.655 3.95605ZM106.663 3.95605L106.455 1.59009L112.591 0.498047L112.799 2.86407L106.663 3.95605ZM113.671 3.95605L113.463 1.59009L119.599 0.498047L119.807 2.86407L113.671 3.95605ZM120.679 3.95605L120.471 1.59009L126.607 0.498047L126.815 2.86407L120.679 3.95605ZM127.687 3.95605L127.479 1.59009L133.615 0.498047L133.823 2.86407L127.687 3.95605ZM134.694 3.95605L134.486 1.59009L140.622 0.498047L140.83 2.86407L134.694 3.95605ZM141.702 3.95605L141.494 1.59009L147.63 0.498047L147.838 2.86407L141.702 3.95605ZM148.71 3.95605L148.502 1.59009L154.638 0.498047L154.846 2.86407L148.71 3.95605ZM155.718 3.95605L155.51 1.59009L161.646 0.498047L161.854 2.86407L155.718 3.95605ZM162.726 3.95605L162.518 1.59009L168.654 0.498047L168.862 2.86407L162.726 3.95605ZM169.734 3.95605L169.526 1.59009L175.662 0.498047L175.869 2.86407L169.734 3.95605ZM176.741 3.95605L176.533 1.59009L182.669 0.498047L182.877 2.86407L176.741 3.95605ZM183.749 3.95605L183.541 1.59009L189.677 0.498047L189.885 2.86407L183.749 3.95605ZM190.757 3.95605L190.549 1.59009L196.685 0.498047L196.893 2.86407L190.757 3.95605ZM197.765 3.95605L197.557 1.59009L203.693 0.498047L203.901 2.86407L197.765 3.95605ZM204.773 3.95605L204.565 1.59009L210.701 0.498047L210.909 2.86407L204.773 3.95605ZM211.78 3.95605L211.572 1.59009L217.708 0.498047L217.916 2.86407L211.78 3.95605ZM218.788 3.95605L218.58 1.59009L224.716 0.498047L224.924 2.86407L218.788 3.95605ZM225.796 3.95605L225.588 1.59009L231.724 0.498047L231.932 2.86407L225.796 3.95605ZM232.804 3.95605L232.596 1.59009L238.732 0.498047L238.94 2.86407L232.804 3.95605ZM239.812 3.95605L239.604 1.59009L245.74 0.498047L245.948 2.86407L239.812 3.95605ZM246.819 3.95605L246.611 1.59009L252.747 0.498047L252.955 2.86407L246.819 3.95605ZM253.827 3.95605L253.619 1.59009L259.755 0.498047L259.963 2.86407L253.827 3.95605ZM260.835 3.95605L260.627 1.59009L266.763 0.498047L266.971 2.86407L260.835 3.95605ZM267.843 3.95605L267.635 1.59009L273.771 0.498047L273.979 2.86407L267.843 3.95605ZM274.851 3.95605L274.643 1.59009L280.779 0.498047L280.987 2.86407L274.851 3.95605ZM281.859 3.95605L281.651 1.59009L287.787 0.498047L287.994 2.86407L281.859 3.95605ZM288.866 3.95605L288.658 1.59009L294.794 0.498047L295.002 2.86407L288.866 3.95605ZM295.874 3.95605L295.666 1.59009L301.802 0.498047L302.01 2.86407L295.874 3.95605ZM302.882 3.95605L302.674 1.59009L308.81 0.498047L309.018 2.86407L302.882 3.95605ZM309.89 3.95605L309.682 1.59009L315.818 0.498047L316.026 2.86407L309.89 3.95605ZM316.898 3.95605L316.69 1.59009L322.826 0.498047L323.034 2.86407L316.898 3.95605Z" fill="white"/>
<path d="M0.546021 12.9561L0.338013 10.5901L6.474 9.49805L6.68201 11.8641L0.546021 12.9561ZM7.55402 12.9561L7.34601 10.5901L13.482 9.49805L13.69 11.8641L7.55402 12.9561ZM14.562 12.9561L14.354 10.5901L20.49 9.49805L20.698 11.8641L14.562 12.9561ZM21.569 12.9561L21.361 10.5901L27.497 9.49805L27.705 11.8641L21.569 12.9561ZM28.577 12.9561L28.369 10.5901L34.505 9.49805L34.713 11.8641L28.577 12.9561ZM35.585 12.9561L35.377 10.5901L41.513 9.49805L41.721 11.8641L35.585 12.9561ZM42.593 12.9561L42.385 10.5901L48.521 9.49805L48.729 11.8641L42.593 12.9561ZM49.601 12.9561L49.393 10.5901L55.529 9.49805L55.737 11.8641L49.601 12.9561ZM56.609 12.9561L56.401 10.5901L62.537 9.49805L62.744 11.8641L56.609 12.9561ZM63.616 12.9561L63.408 10.5901L69.544 9.49805L69.752 11.8641L63.616 12.9561ZM70.624 12.9561L70.416 10.5901L76.552 9.49805L76.76 11.8641L70.624 12.9561ZM77.632 12.9561L77.424 10.5901L83.56 9.49805L83.768 11.8641L77.632 12.9561ZM84.64 12.9561L84.432 10.5901L90.568 9.49805L90.776 11.8641L84.64 12.9561ZM91.648 12.9561L91.44 10.5901L97.576 9.49805L97.784 11.8641L91.648 12.9561ZM98.655 12.9561L98.447 10.5901L104.583 9.49805L104.791 11.8641L98.655 12.9561ZM105.663 12.9561L105.455 10.5901L111.591 9.49805L111.799 11.8641L105.663 12.9561ZM112.671 12.9561L112.463 10.5901L118.599 9.49805L118.807 11.8641L112.671 12.9561ZM119.679 12.9561L119.471 10.5901L125.607 9.49805L125.815 11.8641L119.679 12.9561ZM126.687 12.9561L126.479 10.5901L132.615 9.49805L132.823 11.8641L126.687 12.9561ZM133.694 12.9561L133.486 10.5901L139.622 9.49805L139.83 11.8641L133.694 12.9561ZM140.702 12.9561L140.494 10.5901L146.63 9.49805L146.838 11.8641L140.702 12.9561ZM147.71 12.9561L147.502 10.5901L153.638 9.49805L153.846 11.8641L147.71 12.9561ZM154.718 12.9561L154.51 10.5901L160.646 9.49805L160.854 11.8641L154.718 12.9561ZM161.726 12.9561L161.518 10.5901L167.654 9.49805L167.862 11.8641L161.726 12.9561ZM168.734 12.9561L168.526 10.5901L174.662 9.49805L174.869 11.8641L168.734 12.9561ZM175.741 12.9561L175.533 10.5901L181.669 9.49805L181.877 11.8641L175.741 12.9561ZM182.749 12.9561L182.541 10.5901L188.677 9.49805L188.885 11.8641L182.749 12.9561ZM189.757 12.9561L189.549 10.5901L195.685 9.49805L195.893 11.8641L189.757 12.9561ZM196.765 12.9561L196.557 10.5901L202.693 9.49805L202.901 11.8641L196.765 12.9561ZM203.773 12.9561L203.565 10.5901L209.701 9.49805L209.909 11.8641L203.773 12.9561ZM210.78 12.9561L210.572 10.5901L216.708 9.49805L216.916 11.8641L210.78 12.9561ZM217.788 12.9561L217.58 10.5901L223.716 9.49805L223.924 11.8641L217.788 12.9561ZM224.796 12.9561L224.588 10.5901L230.724 9.49805L230.932 11.8641L224.796 12.9561ZM231.804 12.9561L231.596 10.5901L237.732 9.49805L237.94 11.8641L231.804 12.9561ZM238.812 12.9561L238.604 10.5901L244.74 9.49805L244.948 11.8641L238.812 12.9561ZM245.819 12.9561L245.611 10.5901L251.747 9.49805L251.955 11.8641L245.819 12.9561ZM252.827 12.9561L252.619 10.5901L258.755 9.49805L258.963 11.8641L252.827 12.9561ZM259.835 12.9561L259.627 10.5901L265.763 9.49805L265.971 11.8641L259.835 12.9561ZM266.843 12.9561L266.635 10.5901L272.771 9.49805L272.979 11.8641L266.843 12.9561ZM273.851 12.9561L273.643 10.5901L279.779 9.49805L279.987 11.8641L273.851 12.9561ZM280.859 12.9561L280.651 10.5901L286.787 9.49805L286.994 11.8641L280.859 12.9561ZM287.866 12.9561L287.658 10.5901L293.794 9.49805L294.002 11.8641L287.866 12.9561ZM294.874 12.9561L294.666 10.5901L300.802 9.49805L301.01 11.8641L294.874 12.9561ZM301.882 12.9561L301.674 10.5901L307.81 9.49805L308.018 11.8641L301.882 12.9561ZM308.89 12.9561L308.682 10.5901L314.818 9.49805L315.026 11.8641L308.89 12.9561ZM315.898 12.9561L315.69 10.5901L321.826 9.49805L322.034 11.8641L315.898 12.9561Z" fill="white"/>
</svg>
